<?xml version="1.0" encoding="UTF-8" standalone="no"?>
<svg
   xmlns:dc="http://purl.org/dc/elements/1.1/"
   xmlns:cc="http://creativecommons.org/ns#"
   xmlns:rdf="http://www.w3.org/1999/02/22-rdf-syntax-ns#"
   xmlns:svg="http://www.w3.org/2000/svg"
   xmlns="http://www.w3.org/2000/svg"
   xmlns:sodipodi="http://sodipodi.sourceforge.net/DTD/sodipodi-0.dtd"
   xmlns:inkscape="http://www.inkscape.org/namespaces/inkscape"
   viewBox="0 0 1077.1655 566.92916"
   height="15cm"
   width="28.5cm"
   version="1.1"
   id="svg39"
   sodipodi:docname="logo-white-claim-done-right.svg"
   inkscape:version="0.92.4 (5da689c313, 2019-01-14)">
  <metadata
     id="metadata45">
    <rdf:RDF>
      <cc:Work
         rdf:about="">
        <dc:format>image/svg+xml</dc:format>
        <dc:type
           rdf:resource="http://purl.org/dc/dcmitype/StillImage" />
        <dc:title />
      </cc:Work>
    </rdf:RDF>
  </metadata>
  <defs
     id="defs43" />
  <sodipodi:namedview
     pagecolor="#000000"
     bordercolor="#666666"
     borderopacity="1"
     objecttolerance="10"
     gridtolerance="10"
     guidetolerance="10"
     inkscape:pageopacity="0"
     inkscape:pageshadow="2"
     inkscape:window-width="1920"
     inkscape:window-height="1016"
     id="namedview41"
     showgrid="false"
     inkscape:zoom="0.70710678"
     inkscape:cx="362.16821"
     inkscape:cy="149.74473"
     inkscape:window-x="0"
     inkscape:window-y="27"
     inkscape:window-maximized="1"
     inkscape:current-layer="g898"
     units="cm"
     showguides="true"
     inkscape:guide-bbox="true">
    <sodipodi:guide
       position="-0.0039062503,485.32034"
       orientation="1,0"
       id="guide4574"
       inkscape:locked="false" />
    <sodipodi:guide
       position="1058.4243,581.45459"
       orientation="1,0"
       id="guide4576"
       inkscape:locked="false" />
    <sodipodi:guide
       position="323.64065,268.7863"
       orientation="1,0"
       id="guide4647"
       inkscape:locked="false" />
    <sodipodi:guide
       position="1037.091,484.8485"
       orientation="1,0"
       id="guide4649"
       inkscape:locked="false" />
  </sodipodi:namedview>
  <g
     id="g898"
     transform="translate(0,34.663484)">
    <path
       style="opacity:1;fill:#ffffff;fill-opacity:1;stroke-width:1.01582205"
       d="m 23.262695,56.184114 c -12.839991,0 -23.23692834,10.408113 -23.23692834,23.233882 V 293.99007 c 0,0.81368 0.04672781,1.63345 0.12494611,2.42579 8.63448713,-3.21711 17.80126423,-6.73389 27.48204823,-10.60112 67.38557,-26.89897 122.476649,-49.76919 122.526429,-75.5924 0,-0.82688 -0.0569,-1.66188 -0.17473,-2.49689 -3.48427,-25.4951 -64.410227,-33.39921 -64.325913,-45.08319 0.0071,-0.62067 0.182848,-1.26978 0.55667,-1.91889 7.318998,-12.81866 36.308533,-12.2051 46.984823,-13.11122 10.68543,-0.92744 35.76303,-0.73545 36.9749,-8.37443 0.0356,-0.23567 0.0579,-0.47033 0.0579,-0.706 0.0284,-7.09755 -17.24561,-9.87989 -17.24561,-9.87989 0,0 20.96149,3.13178 20.90461,11.28579 0,0.39922 -0.0488,0.81265 -0.1605,1.23321 -2.25716,8.76044 -20.70144,10.40811 -32.89842,11.00643 -11.53567,0.578 -29.10127,1.89044 -29.1612,7.52521 -0.007,0.32811 0.0498,0.67044 0.16761,1.01988 2.75288,8.23832 67.13568,12.2051 108.32726,33.58409 23.70421,12.29043 35.49282,32.93498 40.90004,54.26318 V 79.414948 c 0,-12.825769 -10.40506,-23.233881 -23.23083,-23.233881 H 23.262695 Z"
       id="path23"
       inkscape:connector-curvature="0" />
    <g
       transform="matrix(1.0147422,0,0,1.0147422,-134.58219,-169.90248)"
       style="fill:#ffffff;fill-opacity:1"
       id="g10">
      <path
         inkscape:connector-curvature="0"
         style="fill:#ffffff;fill-opacity:1"
         id="path2"
         d="M 494.016,299.858 H 451.32 v -8.082 h 94.178 v 8.082 h -42.696 v 121.939 h -8.785 V 299.858 Z" />
      <path
         inkscape:connector-curvature="0"
         style="fill:#ffffff;fill-opacity:1"
         id="path4"
         d="m 543.209,396.496 v -66.943 h 8.434 v 65.889 c 0,14.057 6.15,20.908 20.206,20.908 12.827,0 23.544,-6.676 34.965,-17.57 v -69.228 h 8.434 v 92.245 h -8.434 v -15.285 c -10.191,9.662 -22.139,17.219 -35.668,17.219 -19.152,-10e-4 -27.937,-10.543 -27.937,-27.235 z" />
      <path
         inkscape:connector-curvature="0"
         style="fill:#ffffff;fill-opacity:1"
         id="path6"
         d="m 652.319,401.24 v -64.133 h -16.165 v -7.555 h 16.165 v -33.56 h 8.434 v 33.56 h 24.071 v 7.555 h -24.071 v 62.902 c 0,9.84 3.339,15.463 14.935,15.463 3.515,0 7.028,-0.352 9.664,-1.23 v 7.906 c -2.987,0.527 -6.501,0.879 -10.366,0.879 -15.287,0 -22.667,-6.15 -22.667,-21.787 z" />
      <path
         inkscape:connector-curvature="0"
         style="fill:#ffffff;fill-opacity:1"
         id="path8"
         d="m 703.27,400.537 c 0,-17.57 14.935,-30.749 63.43,-38.831 v -5.623 c 0,-14.056 -7.38,-21.084 -20.03,-21.084 -15.287,0 -25.478,5.974 -35.845,15.287 l -4.919,-5.271 c 11.421,-10.542 23.192,-17.395 40.938,-17.395 19.152,0 28.289,10.894 28.289,27.937 v 43.399 c 0,11.246 0.703,18.097 2.636,22.841 h -8.961 c -1.23,-3.865 -2.108,-8.434 -2.108,-13.705 -11.245,9.664 -23.545,15.287 -37.426,15.287 -16.868,0 -26.004,-8.785 -26.004,-22.842 z m 63.429,-0.703 v -31.803 c -44.98,7.907 -54.996,18.976 -54.996,31.978 0,10.367 6.853,15.99 18.273,15.99 13.706,10e-4 26.18,-5.974 36.723,-16.165 z" />
    </g>
    <g
       transform="matrix(1.0147422,0,0,1.0147422,-134.58219,-169.90248)"
       style="fill:#ffffff;fill-opacity:1"
       id="g20">
      <path
         inkscape:connector-curvature="0"
         style="fill:#ffffff;fill-opacity:1"
         id="path12"
         d="m 803.951,421.797 v -92.772 h 15.286 v 13.881 c 8.083,-7.907 19.68,-15.813 34.79,-15.813 17.746,0 27.41,10.191 27.41,27.762 v 66.943 h -15.111 v -63.604 c 0,-12.299 -5.271,-18.098 -17.043,-18.098 -11.069,0 -20.382,5.798 -30.046,14.935 v 66.768 h -15.286 z" />
      <path
         inkscape:connector-curvature="0"
         style="fill:#ffffff;fill-opacity:1"
         id="path14"
         d="m 903.572,375.411 c 0,-31.978 20.382,-48.319 43.224,-48.319 22.666,0 43.048,16.341 43.048,48.319 0,31.802 -20.382,48.319 -43.048,48.319 -22.666,0 -43.224,-16.517 -43.224,-48.319 z m 70.986,0 c 0,-19.328 -9.313,-35.316 -27.762,-35.316 -17.746,0 -27.937,14.408 -27.937,35.316 0,19.679 9.137,35.493 27.937,35.493 17.57,0 27.762,-14.233 27.762,-35.493 z" />
      <path
         inkscape:connector-curvature="0"
         style="fill:#ffffff;fill-opacity:1"
         id="path16"
         d="M 1019.535,399.307 V 341.5 h -16.165 v -12.475 h 16.165 v -33.032 h 15.11 v 33.032 h 24.072 V 341.5 h -24.072 v 54.469 c 0,9.84 3.163,14.76 14.408,14.76 3.338,0 7.028,-0.527 9.488,-1.23 v 12.475 c -2.636,0.527 -8.435,1.055 -13.178,1.055 -19.503,-0.002 -25.828,-7.556 -25.828,-23.722 z" />
      <path
         inkscape:connector-curvature="0"
         style="fill:#ffffff;fill-opacity:1"
         id="path18"
         d="m 1075.057,399.834 c 0,-18.801 15.988,-32.154 62.023,-38.655 v -4.217 c 0,-11.597 -6.149,-17.219 -17.57,-17.219 -14.057,0 -24.423,6.15 -33.56,14.056 l -7.907,-9.488 c 10.718,-9.839 24.599,-17.219 43.048,-17.219 22.139,0 30.924,11.597 30.924,30.924 v 40.939 c 0,11.246 0.703,18.097 2.636,22.841 h -15.462 c -1.229,-3.865 -2.108,-7.555 -2.108,-12.826 -10.366,9.664 -21.963,14.232 -35.844,14.232 -15.99,10e-4 -26.18,-8.432 -26.18,-23.368 z m 62.023,-2.108 v -26.004 c -35.316,5.623 -47.089,14.232 -47.089,25.829 0,8.961 5.974,13.706 15.638,13.706 12.299,-0.001 22.842,-5.097 31.451,-13.531 z" />
    </g>
    <g
       id="g62"
       style="fill:#ffffff;fill-opacity:1">
      <g
         id="text9"
         style="font-style:normal;font-variant:normal;font-weight:300;font-stretch:normal;font-size:103.40768433px;line-height:0%;font-family:BentonSans;-inkscape-font-specification:'BentonSans Light';text-align:start;word-spacing:40px;writing-mode:lr-tb;text-anchor:start;stroke-width:7.77731705;fill:#ffffff;fill-opacity:1"
         aria-label="privacy. done. right.">
        <path
           id="path1026"
           style="font-style:normal;font-variant:normal;font-weight:300;font-stretch:normal;font-size:103.40768433px;line-height:125%;font-family:BentonSans;-inkscape-font-specification:'BentonSans Light';text-align:start;letter-spacing:6.0999999px;word-spacing:30px;writing-mode:lr-tb;text-anchor:start;fill:#ffffff;fill-opacity:1;stroke-width:7.77731705"
           d="M -4.3487549e-7,441.4211 H 4.9635684 v -28.64393 c 5.1703846,5.06698 10.8578066,8.89306 18.3031606,8.89306 12.615737,0 22.956505,-9.09987 22.956505,-28.12689 0,-19.02701 -10.23736,-28.2303 -22.74969,-28.2303 -8.169207,0 -13.8566298,4.23972 -18.5099756,9.09988 v -7.96239 H -4.3487549e-7 Z M 23.576952,417.32711 c -7.031723,0 -12.51233,-3.51586 -18.6133836,-9.72032 v -28.2303 c 6.1010536,-6.20446 11.0646226,-9.72032 18.4065676,-9.72032 9.513507,0 17.88953,7.54876 17.88953,23.99058 0,16.64864 -8.169207,23.68036 -17.682714,23.68036 z" />
        <path
           id="path1028"
           style="font-style:normal;font-variant:normal;font-weight:300;font-stretch:normal;font-size:103.40768433px;line-height:125%;font-family:BentonSans;-inkscape-font-specification:'BentonSans Light';text-align:start;letter-spacing:6.0999999px;word-spacing:30px;writing-mode:lr-tb;text-anchor:start;fill:#ffffff;fill-opacity:1;stroke-width:7.77731705"
           d="m 66.690437,420.73956 h 4.963569 V 384.9605 c 4.44653,-9.61691 12.202106,-14.99411 21.40539,-14.99411 h 1.757931 l 0.827261,-4.65335 h -1.447707 c -10.857807,0 -17.786122,5.3772 -22.33606,12.51233 h -0.206815 v -11.37484 h -4.963569 z" />
        <path
           id="path1030"
           style="font-style:normal;font-variant:normal;font-weight:300;font-stretch:normal;font-size:103.40768433px;line-height:125%;font-family:BentonSans;-inkscape-font-specification:'BentonSans Light';text-align:start;letter-spacing:6.0999999px;word-spacing:30px;writing-mode:lr-tb;text-anchor:start;fill:#ffffff;fill-opacity:1;stroke-width:7.77731705"
           d="m 113.60254,420.73956 h 4.96357 v -54.28903 h -4.96357 z m -0.20682,-68.14566 h 5.3772 v -6.30787 h -5.3772 z" />
        <path
           id="path1032"
           style="font-style:normal;font-variant:normal;font-weight:300;font-stretch:normal;font-size:103.40768433px;line-height:125%;font-family:BentonSans;-inkscape-font-specification:'BentonSans Light';text-align:start;letter-spacing:6.0999999px;word-spacing:30px;writing-mode:lr-tb;text-anchor:start;fill:#ffffff;fill-opacity:1;stroke-width:7.77731705"
           d="m 157.49967,421.04979 h 4.96357 l 20.1645,-54.59926 h -5.3772 l -17.06227,48.08457 h -0.20682 l -17.16567,-48.08457 h -5.48061 z" />
        <path
           id="path1034"
           style="font-style:normal;font-variant:normal;font-weight:300;font-stretch:normal;font-size:103.40768433px;line-height:125%;font-family:BentonSans;-inkscape-font-specification:'BentonSans Light';text-align:start;letter-spacing:6.0999999px;word-spacing:30px;writing-mode:lr-tb;text-anchor:start;fill:#ffffff;fill-opacity:1;stroke-width:7.77731705"
           d="m 210.7972,421.67023 c 8.16921,0 15.40775,-3.30904 22.02584,-8.99647 0,3.10223 0.51704,5.79083 1.24089,8.0658 h 5.27379 c -1.13748,-2.792 -1.55111,-6.8249 -1.55111,-13.443 v -25.54169 c 0,-10.03055 -5.3772,-16.44183 -16.64864,-16.44183 -10.44418,0 -17.37249,4.0329 -24.09399,10.23736 l 2.89541,3.10224 c 6.10106,-5.48061 12.0987,-8.99647 21.09517,-8.99647 7.44535,0 11.78848,4.1363 11.78848,12.40892 v 3.30904 c -28.54052,4.75676 -37.33018,12.51233 -37.33018,22.8531 0,8.27262 5.3772,13.443 15.30434,13.443 z m 0.41363,-4.34312 c -6.7215,0 -10.7544,-3.30905 -10.7544,-9.4101 0,-7.65217 5.89424,-14.16685 32.36661,-18.8202 v 18.71679 c -6.20446,5.99765 -13.54641,9.51351 -21.61221,9.51351 z" />
        <path
           id="path1036"
           style="font-style:normal;font-variant:normal;font-weight:300;font-stretch:normal;font-size:103.40768433px;line-height:125%;font-family:BentonSans;-inkscape-font-specification:'BentonSans Light';text-align:start;letter-spacing:6.0999999px;word-spacing:30px;writing-mode:lr-tb;text-anchor:start;fill:#ffffff;fill-opacity:1;stroke-width:7.77731705"
           d="m 280.18915,421.87705 c 10.34077,0 16.44182,-5.48061 20.99176,-14.89071 l -3.9295,-1.96475 c -4.1363,8.27262 -8.47943,12.51233 -16.75204,12.51233 -9.92714,0 -18.09635,-8.78965 -18.09635,-23.99058 0,-17.68271 9.92714,-23.88717 18.30317,-23.88717 8.37602,0 12.82255,4.65334 16.13159,12.40892 l 4.23972,-2.27497 c -3.41245,-7.75558 -9.20329,-14.47708 -20.1645,-14.47708 -12.20211,0 -23.47354,9.3067 -23.47354,28.33371 0,17.26908 10.34076,28.2303 22.74969,28.2303 z" />
        <path
           id="path1038"
           style="font-style:normal;font-variant:normal;font-weight:300;font-stretch:normal;font-size:103.40768433px;line-height:125%;font-family:BentonSans;-inkscape-font-specification:'BentonSans Light';text-align:start;letter-spacing:6.0999999px;word-spacing:30px;writing-mode:lr-tb;text-anchor:start;fill:#ffffff;fill-opacity:1;stroke-width:7.77731705"
           d="m 320.27153,441.4211 c 10.34076,0 14.16685,-4.54994 17.88953,-14.27026 l 23.47354,-60.70031 h -5.3772 l -17.99294,48.29139 h -0.20681 l -17.99294,-48.29139 h -5.48061 l 21.09517,54.59926 -2.58519,6.7215 c -2.48179,6.41127 -5.68742,9.30669 -12.20211,9.30669 -3.20564,0 -5.27379,-0.31023 -6.8249,-0.72386 l -1.2409,4.13631 c 2.06816,0.62045 4.23972,0.93067 7.44536,0.93067 z" />
        <path
           id="path1040"
           style="font-style:normal;font-variant:normal;font-weight:300;font-stretch:normal;font-size:103.40768433px;line-height:125%;font-family:BentonSans;-inkscape-font-specification:'BentonSans Light';text-align:start;letter-spacing:6.0999999px;word-spacing:30px;writing-mode:lr-tb;text-anchor:start;fill:#ffffff;fill-opacity:1;stroke-width:7.77731705"
           d="m 376.08475,420.73956 h 6.92831 v -8.27261 h -6.92831 z" />
        <path
           id="path1042"
           style="font-style:normal;font-variant:normal;font-weight:300;font-stretch:normal;font-size:103.40768433px;line-height:125%;font-family:BentonSans;-inkscape-font-specification:'BentonSans Light';text-align:start;letter-spacing:6.0999999px;word-spacing:30px;writing-mode:lr-tb;text-anchor:start;fill:#ffffff;fill-opacity:1;stroke-width:7.77731705"
           d="m 483.34111,421.67023 c 8.1692,0 13.85663,-4.23971 18.50997,-9.09987 0,2.89541 0.62045,6.20446 1.2409,8.1692 h 5.3772 c -1.2409,-2.792 -1.65453,-6.8249 -1.65453,-13.443 v -63.07868 h -4.96357 v 30.19504 c -4.34312,-4.86016 -10.8578,-9.09988 -18.30316,-9.09988 -12.61573,0 -22.9565,9.3067 -22.9565,28.33371 0,19.02701 10.23736,28.02348 22.74969,28.02348 z m 0.10341,-4.34312 c -9.51351,0 -17.88953,-7.34195 -17.88953,-23.78377 0,-16.64864 8.1692,-23.88717 17.68271,-23.88717 7.03172,0 12.51233,3.51586 18.61338,9.72032 v 28.2303 c -6.10105,6.20446 -11.06462,9.72032 -18.40656,9.72032 z" />
        <path
           id="path1044"
           style="font-style:normal;font-variant:normal;font-weight:300;font-stretch:normal;font-size:103.40768433px;line-height:125%;font-family:BentonSans;-inkscape-font-specification:'BentonSans Light';text-align:start;letter-spacing:6.0999999px;word-spacing:30px;writing-mode:lr-tb;text-anchor:start;fill:#ffffff;fill-opacity:1;stroke-width:7.77731705"
           d="m 551.06564,421.87705 c 13.3396,0 23.88718,-10.96122 23.88718,-28.2303 0,-17.4759 -10.54758,-28.33371 -23.88718,-28.33371 -13.44299,0 -23.88717,10.85781 -23.88717,28.33371 0,17.26908 10.54758,28.2303 23.88717,28.2303 z m 0,-4.34313 c -12.40892,0 -18.9236,-11.27143 -18.9236,-23.99058 0,-13.5464 7.23854,-23.88717 18.9236,-23.88717 12.30552,0 18.92361,11.27143 18.92361,23.88717 0,13.75322 -7.23854,23.99058 -18.92361,23.99058 z" />
        <path
           id="path1046"
           style="font-style:normal;font-variant:normal;font-weight:300;font-stretch:normal;font-size:103.40768433px;line-height:125%;font-family:BentonSans;-inkscape-font-specification:'BentonSans Light';text-align:start;letter-spacing:6.0999999px;word-spacing:30px;writing-mode:lr-tb;text-anchor:start;fill:#ffffff;fill-opacity:1;stroke-width:7.77731705"
           d="m 595.35541,420.73956 h 4.96357 v -40.74262 c 6.7215,-6.41128 13.02936,-10.34077 20.57813,-10.34077 8.27261,0 11.89188,4.0329 11.89188,12.30551 v 38.77788 h 4.96357 v -39.39832 c 0,-9.82373 -5.17039,-16.0282 -16.44182,-16.0282 -7.9624,0 -14.99412,4.44653 -20.99176,10.13396 v -8.99647 h -4.96357 z" />
        <path
           id="path1048"
           style="font-style:normal;font-variant:normal;font-weight:300;font-stretch:normal;font-size:103.40768433px;line-height:125%;font-family:BentonSans;-inkscape-font-specification:'BentonSans Light';text-align:start;letter-spacing:6.0999999px;word-spacing:30px;writing-mode:lr-tb;text-anchor:start;fill:#ffffff;fill-opacity:1;stroke-width:7.77731705"
           d="m 680.38289,421.87705 c 10.54758,0 16.95886,-5.17039 21.40539,-13.33959 l -3.61927,-2.27497 c -4.13631,7.23854 -8.99647,11.27143 -17.4759,11.27143 -10.03055,0 -18.19975,-8.89306 -18.19975,-23.68035 h 39.60514 v -0.72386 c 0,-17.06227 -8.68625,-27.81667 -21.5088,-27.81667 -11.58166,0 -23.05991,9.4101 -23.05991,28.2303 0,17.88953 10.65099,28.33371 22.8531,28.33371 z m -17.78613,-32.15979 c 1.3443,-13.443 9.4101,-20.06109 17.88953,-20.06109 10.44418,0 15.71797,8.89306 16.44183,20.06109 z" />
        <path
           id="path1050"
           style="font-style:normal;font-variant:normal;font-weight:300;font-stretch:normal;font-size:103.40768433px;line-height:125%;font-family:BentonSans;-inkscape-font-specification:'BentonSans Light';text-align:start;letter-spacing:6.0999999px;word-spacing:30px;writing-mode:lr-tb;text-anchor:start;fill:#ffffff;fill-opacity:1;stroke-width:7.77731705"
           d="m 722.00668,420.73956 h 6.92832 v -8.27261 h -6.92832 z" />
        <path
           id="path1052"
           style="font-style:normal;font-variant:normal;font-weight:300;font-stretch:normal;font-size:103.40768433px;line-height:125%;font-family:BentonSans;-inkscape-font-specification:'BentonSans Light';text-align:start;letter-spacing:6.0999999px;word-spacing:30px;writing-mode:lr-tb;text-anchor:start;fill:#ffffff;fill-opacity:1;stroke-width:7.77731705"
           d="m 809.51215,420.73956 h 4.96356 V 384.9605 c 4.44653,-9.61691 12.20211,-14.99411 21.4054,-14.99411 h 1.75793 l 0.82726,-4.65335 h -1.44771 c -10.85781,0 -17.78612,5.3772 -22.33606,12.51233 h -0.20682 v -11.37484 h -4.96356 z" />
        <path
           id="path1054"
           style="font-style:normal;font-variant:normal;font-weight:300;font-stretch:normal;font-size:103.40768433px;line-height:125%;font-family:BentonSans;-inkscape-font-specification:'BentonSans Light';text-align:start;letter-spacing:6.0999999px;word-spacing:30px;writing-mode:lr-tb;text-anchor:start;fill:#ffffff;fill-opacity:1;stroke-width:7.77731705"
           d="m 856.42428,420.73956 h 4.96357 v -54.28903 h -4.96357 z m -0.20682,-68.14566 h 5.3772 v -6.30787 h -5.3772 z" />
        <path
           id="path1056"
           style="font-style:normal;font-variant:normal;font-weight:300;font-stretch:normal;font-size:103.40768433px;line-height:125%;font-family:BentonSans;-inkscape-font-specification:'BentonSans Light';text-align:start;letter-spacing:6.0999999px;word-spacing:30px;writing-mode:lr-tb;text-anchor:start;fill:#ffffff;fill-opacity:1;stroke-width:7.77731705"
           d="m 905.07817,441.4211 c 14.06345,0 24.09399,-5.3772 24.09399,-14.7873 0,-8.0658 -6.7215,-12.40892 -17.99294,-13.443 l -12.71914,-1.13748 c -6.61809,-0.62045 -8.68625,-2.06816 -8.68625,-4.44653 0,-2.27497 1.96475,-3.92949 4.86016,-5.06698 2.79201,1.13749 5.99765,1.75793 9.3067,1.75793 11.16803,0 20.78494,-7.23854 20.78494,-19.33724 0,-4.65334 -1.3443,-8.47943 -3.72268,-11.58166 2.89542,-1.3443 6.6181,-1.96474 10.13396,-1.96474 v -5.3772 c -4.34313,0.62044 -9.20329,2.6886 -12.30552,4.86016 -3.82608,-3.61927 -9.09987,-5.58402 -14.99411,-5.58402 -11.47825,0 -20.78495,7.9624 -20.78495,19.64746 0,6.82491 3.10223,12.30552 8.0658,15.61456 -3.82608,1.86134 -6.30787,4.44653 -6.30787,7.44536 0,3.41245 1.65453,5.68742 5.17039,7.03172 -6.7215,2.58519 -10.44418,7.03172 -10.44418,12.71915 0,8.47943 8.37602,13.64981 25.5417,13.64981 z m -1.13748,-41.36307 c -9.61692,0 -16.0282,-6.10106 -16.0282,-15.09753 0,-9.09987 6.20447,-15.40774 15.92479,-15.40774 10.13395,0 16.02819,6.10105 16.02819,15.40774 0,8.99647 -6.30787,15.09753 -15.92478,15.09753 z m 1.3443,37.22676 c -14.6839,0 -20.88836,-3.92949 -20.88836,-9.92714 0,-4.75675 3.61927,-8.99646 10.651,-11.16803 l 2.68859,0.31023 11.27144,0.93067 c 10.65099,0.93067 15.30434,3.92949 15.30434,9.61691 0,5.99765 -7.13513,10.23736 -19.02701,10.23736 z" />
        <path
           id="path1058"
           style="font-style:normal;font-variant:normal;font-weight:300;font-stretch:normal;font-size:103.40768433px;line-height:125%;font-family:BentonSans;-inkscape-font-specification:'BentonSans Light';text-align:start;letter-spacing:6.0999999px;word-spacing:30px;writing-mode:lr-tb;text-anchor:start;fill:#ffffff;fill-opacity:1;stroke-width:7.77731705"
           d="m 948.99304,420.73956 h 4.96357 v -40.74262 c 6.7215,-6.41128 13.02937,-10.34077 20.57813,-10.34077 8.27261,0 11.89188,4.0329 11.89188,12.30551 v 38.77788 h 4.96357 v -39.39832 c 0,-9.82373 -5.17038,-16.0282 -16.44182,-16.0282 -7.96239,0 -14.99411,4.44653 -20.99176,10.13396 v -31.22912 h -4.96357 z" />
        <path
           id="path1060"
           style="font-style:normal;font-variant:normal;font-weight:300;font-stretch:normal;font-size:103.40768433px;line-height:125%;font-family:BentonSans;-inkscape-font-specification:'BentonSans Light';text-align:start;letter-spacing:6.0999999px;word-spacing:30px;writing-mode:lr-tb;text-anchor:start;fill:#ffffff;fill-opacity:1;stroke-width:7.77731705"
           d="m 1031.1252,421.46342 c 2.2749,0 4.3431,-0.20682 6.101,-0.51704 v -4.65335 c -1.5511,0.51704 -3.6192,0.72386 -5.6874,0.72386 -6.8249,0 -8.7897,-3.30905 -8.7897,-9.09988 v -37.01995 h 14.1669 v -4.44653 h -14.1669 v -19.75087 h -4.9635 v 19.75087 h -9.5135 v 4.44653 h 9.5135 v 37.7438 c 0,9.20329 4.3431,12.82256 13.3396,12.82256 z" />
        <path
           id="path1062"
           style="font-style:normal;font-variant:normal;font-weight:300;font-stretch:normal;font-size:103.40768433px;line-height:125%;font-family:BentonSans;-inkscape-font-specification:'BentonSans Light';text-align:start;letter-spacing:6.0999999px;word-spacing:30px;writing-mode:lr-tb;text-anchor:start;fill:#ffffff;fill-opacity:1;stroke-width:7.77731705"
           d="m 1058.0731,420.73956 h 6.9283 v -8.27261 h -6.9283 z" />
      </g>
    </g>
  </g>
</svg>
